<mxfile host="app.diagrams.net" modified="2023-10-16T01:56:14.214Z" agent="Mozilla/5.0 (Windows NT 10.0; Win64; x64; rv:109.0) Gecko/20100101 Firefox/118.0" etag="P3yvIqvC9TRbyVoOYzM_" version="22.0.4" type="github">
  <diagram id="C5RBs43oDa-KdzZeNtuy" name="Page-1">
    <mxGraphModel dx="880" dy="470" grid="1" gridSize="10" guides="1" tooltips="1" connect="1" arrows="1" fold="1" page="1" pageScale="1" pageWidth="827" pageHeight="1169" math="0" shadow="0">
      <root>
        <mxCell id="WIyWlLk6GJQsqaUBKTNV-0" />
        <mxCell id="WIyWlLk6GJQsqaUBKTNV-1" parent="WIyWlLk6GJQsqaUBKTNV-0" />
        <mxCell id="48wQNKlJrFV1Bbq_co0F-28" style="edgeStyle=orthogonalEdgeStyle;rounded=0;orthogonalLoop=1;jettySize=auto;html=1;exitX=0.5;exitY=1;exitDx=0;exitDy=0;" edge="1" parent="WIyWlLk6GJQsqaUBKTNV-1" source="48wQNKlJrFV1Bbq_co0F-27">
          <mxGeometry relative="1" as="geometry">
            <mxPoint x="414" y="160" as="targetPoint" />
          </mxGeometry>
        </mxCell>
        <mxCell id="48wQNKlJrFV1Bbq_co0F-27" value="start" style="ellipse;whiteSpace=wrap;html=1;" vertex="1" parent="WIyWlLk6GJQsqaUBKTNV-1">
          <mxGeometry x="354" y="30" width="120" height="80" as="geometry" />
        </mxCell>
        <mxCell id="48wQNKlJrFV1Bbq_co0F-45" style="edgeStyle=orthogonalEdgeStyle;rounded=0;orthogonalLoop=1;jettySize=auto;html=1;exitX=0.5;exitY=1;exitDx=0;exitDy=0;entryX=0.5;entryY=0;entryDx=0;entryDy=0;" edge="1" parent="WIyWlLk6GJQsqaUBKTNV-1" source="48wQNKlJrFV1Bbq_co0F-33" target="48wQNKlJrFV1Bbq_co0F-40">
          <mxGeometry relative="1" as="geometry" />
        </mxCell>
        <mxCell id="48wQNKlJrFV1Bbq_co0F-33" value="Alas" style="rounded=1;whiteSpace=wrap;html=1;" vertex="1" parent="WIyWlLk6GJQsqaUBKTNV-1">
          <mxGeometry x="354" y="160" width="126" height="40" as="geometry" />
        </mxCell>
        <mxCell id="48wQNKlJrFV1Bbq_co0F-46" style="edgeStyle=orthogonalEdgeStyle;rounded=0;orthogonalLoop=1;jettySize=auto;html=1;exitX=0.5;exitY=1;exitDx=0;exitDy=0;" edge="1" parent="WIyWlLk6GJQsqaUBKTNV-1" source="48wQNKlJrFV1Bbq_co0F-40">
          <mxGeometry relative="1" as="geometry">
            <mxPoint x="417" y="330" as="targetPoint" />
          </mxGeometry>
        </mxCell>
        <mxCell id="48wQNKlJrFV1Bbq_co0F-40" value="Tinggi" style="rounded=0;whiteSpace=wrap;html=1;" vertex="1" parent="WIyWlLk6GJQsqaUBKTNV-1">
          <mxGeometry x="339" y="240" width="156" height="40" as="geometry" />
        </mxCell>
        <mxCell id="48wQNKlJrFV1Bbq_co0F-48" style="edgeStyle=orthogonalEdgeStyle;rounded=0;orthogonalLoop=1;jettySize=auto;html=1;exitX=0.5;exitY=1;exitDx=0;exitDy=0;" edge="1" parent="WIyWlLk6GJQsqaUBKTNV-1" source="48wQNKlJrFV1Bbq_co0F-47">
          <mxGeometry relative="1" as="geometry">
            <mxPoint x="417" y="410" as="targetPoint" />
          </mxGeometry>
        </mxCell>
        <mxCell id="48wQNKlJrFV1Bbq_co0F-47" value="Luas=1/2*(alas*tinggi)" style="rounded=1;whiteSpace=wrap;html=1;" vertex="1" parent="WIyWlLk6GJQsqaUBKTNV-1">
          <mxGeometry x="322" y="330" width="190" height="30" as="geometry" />
        </mxCell>
        <mxCell id="48wQNKlJrFV1Bbq_co0F-50" style="edgeStyle=orthogonalEdgeStyle;rounded=0;orthogonalLoop=1;jettySize=auto;html=1;exitX=1;exitY=0.5;exitDx=0;exitDy=0;" edge="1" parent="WIyWlLk6GJQsqaUBKTNV-1" source="48wQNKlJrFV1Bbq_co0F-49">
          <mxGeometry relative="1" as="geometry">
            <mxPoint x="550" y="430" as="targetPoint" />
          </mxGeometry>
        </mxCell>
        <mxCell id="48wQNKlJrFV1Bbq_co0F-49" value="luas segitiga" style="rounded=0;whiteSpace=wrap;html=1;" vertex="1" parent="WIyWlLk6GJQsqaUBKTNV-1">
          <mxGeometry x="339" y="410" width="156" height="40" as="geometry" />
        </mxCell>
        <mxCell id="48wQNKlJrFV1Bbq_co0F-51" value="finsh" style="ellipse;whiteSpace=wrap;html=1;" vertex="1" parent="WIyWlLk6GJQsqaUBKTNV-1">
          <mxGeometry x="550" y="400" width="90" height="60" as="geometry" />
        </mxCell>
      </root>
    </mxGraphModel>
  </diagram>
</mxfile>
